PathFileType	4	(X/Y/Z)	OpenSim_Sub01_EMGBaseline_Accel.trc
DataRate	CameraRate	NumFrames	NumMarkers	Units	OrigDataRate	OrigDataStartFrame	OrigNumFrames
100	100	37	8	m	100	3803	7604
Frame#	Time	torso_imu_offset_imu	pelvis_imu_offset_imu	tibia_r_imu_offset_imu	femur_r_imu_offset_imu	tibia_l_imu_offset_imu	femur_l_imu_offset_imu	toes_r_imu_offset_imu	toes_l_imu_offset_imu
				X1	Y1	Z1	X2	Y2	Z2	X3	Y3	Z3	X4	Y4	Z4	X5	Y5	Z5	X6	Y6	Z6	X7	Y7	Z7	X8		Y8	Z8	

3803	38.02000000	8.04160258	-0.79965167	5.90711101	9.56418388	1.07209726	2.13257420	9.72541277	2.01762526	0.27421398	9.50288010	-0.11910452	0.12571242	2.15939636	-5.58025269	0.99603514	8.97352475	2.70894744	1.06422468	5.16270542	-1.72098080	8.43126049	2.68515454	-0.28537910	12.03277359
3804	38.03000000	8.11361974	-0.97538256	5.86623395	9.42750549	1.35892746	2.07608624	9.72431221	2.92053659	0.35140765	9.44165814	0.06813926	0.04695038	2.46433827	-5.96292793	0.84898455	9.06439720	2.10227830	0.99974579	5.25813576	-1.71168498	8.31812173	3.60451219	-0.70152479	12.22852153
3805	38.04000000	8.33428745	-1.14968598	5.86931676	9.29188342	1.58293092	2.03039832	9.69737506	3.32285778	0.24747674	9.37750243	0.07347898	-0.13005825	2.73046727	-6.18989666	1.01100128	9.06357741	1.62241161	0.90530582	5.38139257	-1.73974940	8.17244409	4.44671530	-0.87733399	12.27421114
3806	38.05000000	8.53133629	-1.22823412	5.91092413	9.19087605	1.74317274	2.00004669	9.59860447	3.16246548	-0.07344999	9.24424146	-0.02202340	-0.40396313	2.96610134	-6.14005927	1.38513033	8.90080221	1.26961650	0.72759273	5.41380911	-1.87306964	8.09638495	5.14312987	-1.00661896	12.16350929
3807	38.06000000	8.62343252	-1.21203623	5.97327203	9.11458499	1.83026129	1.98010116	9.45712978	2.49289127	-0.50647566	9.04505951	-0.15343035	-0.68832992	3.19929669	-5.83159295	1.86599361	8.63384322	1.03634008	0.48783077	5.35971924	-2.07063529	8.09934481	5.74611220	-1.11248020	11.95948917
3808	38.07000000	8.59926575	-1.17547838	6.02907574	9.01967848	1.82830491	1.95834907	9.35989036	1.45675426	-0.83839184	8.83653558	-0.26822954	-0.83127836	3.47329711	-5.38989282	2.34172528	8.41898447	0.90899832	0.26460931	5.31811120	-2.20763342	8.11933924	6.40110677	-1.08663824	11.77862604
3809	38.08000000	8.47708137	-1.17645577	6.05793478	8.88814503	1.73449535	1.92877857	9.36568714	0.27341875	-0.92229705	8.68259134	-0.33103620	-0.74820214	3.82250293	-4.94630285	2.69542172	8.34998966	0.86100652	0.12076897	5.34824286	-2.20169252	8.11846555	7.18901854	-0.86301777	11.70276594
3810	38.09000000	8.35759519	-1.21825375	6.06063086	8.77976581	1.58539761	1.90435969	9.44529125	-0.61651795	-0.81659442	8.66488549	-0.35640893	-0.55939652	4.25387591	-4.64164834	2.79570575	8.32731844	0.82761038	0.06796933	5.38408161	-2.10295767	8.13583436	7.99186322	-0.51099185	11.70677525
3811	38.10000000	8.34899089	-1.29306939	6.04292547	8.76402383	1.42474722	1.89999210	9.55481185	-0.75935184	-0.61531991	8.85832110	-0.36625821	-0.41528128	4.76979877	-4.60591223	2.52789394	8.22195913	0.73887187	0.10709223	5.34405304	-1.98286609	8.21959814	8.66636549	-0.12164270	11.74892455
3812	38.11000000	8.44304558	-1.37826032	6.02649383	8.84036330	1.29464881	1.90693664	9.67449917	-0.11728721	-0.37772280	9.18764966	-0.35433656	-0.35018414	5.38004475	-4.78061400	2.06713021	7.99868187	0.55288131	0.21934078	5.26063734	-1.86485092	8.34015106	9.24103273	0.26382129	11.83511320
3813	38.12000000	8.54195110	-1.43976957	6.04524711	8.95432076	1.23593867	1.89826652	9.80317680	1.02727741	-0.13627792	9.46208516	-0.29272647	-0.30907399	6.10005618	-4.96219443	1.81156440	7.69447821	0.24934287	0.37076696	5.25406854	-1.73540344	8.40805873	9.87658625	0.64257318	12.00788991
3814	38.13000000	8.57848383	-1.45499093	6.11416555	9.06118029	1.27223347	1.85934400	9.92629691	2.34762835	0.07136320	9.55360206	-0.16097690	-0.24664658	6.91863060	-4.94439629	2.02738579	7.38525255	-0.14173808	0.52377454	5.38626125	-1.59568347	8.37210965	10.70425024	0.99744989	12.29028487
3815	38.14000000	8.58314711	-1.43621566	6.19104249	9.14931044	1.37608023	1.81343731	9.98815984	3.40984708	0.19012038	9.52949372	0.03752065	-0.15333045	7.74495930	-4.52403464	2.57162779	7.25701559	-0.44254209	0.63108520	5.53913098	-1.49326099	8.29924150	11.75749476	1.26575589	12.64452942
3816	38.15000000	8.60189273	-1.40260695	6.22647956	9.21370244	1.51086504	1.78758319	9.93230456	3.79167941	0.16713465	9.48978554	0.29422500	-0.02850024	8.48561038	-3.53837845	3.21381240	7.49693109	-0.46181680	0.64833823	5.57090317	-1.47967247	8.27321457	13.04296308	1.39176442	13.01832675
3817	38.16000000	8.64147337	-1.37961080	6.22167245	9.25691662	1.64418017	1.76034204	9.80472160	3.54197827	0.03099757	9.48393677	0.58949826	0.09346160	9.22812580	-2.42150825	3.54592933	8.00481546	-0.21622994	0.60161427	5.48328313	-1.53741538	8.30265417	14.43631978	1.54998433	13.31019181
3818	38.17000000	8.67847089	-1.39749656	6.21674999	9.28733761	1.74686177	1.67298695	9.73023241	3.07217940	-0.12701574	9.52246986	0.89515697	0.15124530	10.19923366	-2.06659368	3.02359390	8.45936118	0.11753341	0.57120205	5.38840199	-1.59585955	8.33835754	15.71245673	2.09195811	13.38078066
3819	38.18000000	8.69498743	-1.46912413	6.23390317	9.31023889	1.79771612	1.50542297	9.78731989	2.70172518	-0.23695209	9.60047428	1.17837585	0.11179619	11.45957802	-2.93063824	1.48416110	8.63517175	0.41165719	0.61512139	5.36774480	-1.60789445	8.34410422	16.71661042	3.10551501	13.09823416
3820	38.19000000	8.69183425	-1.55525385	6.23904636	9.32120435	1.79898431	1.35519711	9.91075019	2.44899275	-0.29700583	9.67015781	1.39318999	0.02807562	12.56565850	-4.13952135	-0.09028070	8.60874445	0.69576676	0.72107843	5.40329363	-1.60035716	8.32666996	17.51074343	3.88134954	12.35582721
3821	38.20000000	8.67345838	-1.60979037	6.19112789	9.31413528	1.75747349	1.33373683	10.01320797	2.27569956	-0.31838772	9.68060044	1.49045098	-0.03456767	13.01671719	-4.62714978	-0.58564903	8.51090914	1.03173042	0.86770938	5.45839834	-1.61199922	8.30126235	18.18529474	3.62535409	11.06234131
3822	38.21000000	8.64695133	-1.62818580	6.10054891	9.28456216	1.68348211	1.43471548	10.07455492	2.12863940	-0.31854784	9.65271036	1.40972612	-0.06338921	12.84993016	-4.13740123	-0.07965273	8.45030616	1.52831662	1.09245438	5.49288267	-1.65527807	8.29030938	18.65723851	2.47974084	9.28905041
3823	38.22000000	8.62144118	-1.63786798	6.01731051	9.22927492	1.58999739	1.56117590	10.12635382	1.94313018	-0.31973564	9.66264993	1.08194543	-0.08613674	12.51648394	-3.03768939	0.43281502	8.51846565	2.33036239	1.47797420	5.46387944	-1.72240324	8.32178121	18.71012827	1.30726120	7.23230569
3824	38.23000000	8.60721899	-1.65700509	5.98111783	9.15208038	1.49160531	1.63617067	10.18566688	1.67052249	-0.33948669	9.73578438	0.50343795	-0.12810124	12.35590270	-1.73638017	0.27697301	8.76842964	3.53676781	2.04601234	5.35961170	-1.79624975	8.40242076	18.27395035	0.66860455	5.07862713
3825	38.24000000	8.61787595	-1.67380688	5.99805568	9.07753932	1.40743704	1.64913712	10.22251727	1.31068419	-0.38096268	9.74231588	-0.13447896	-0.20417843	12.34426967	-0.71586569	-0.20066708	9.14018361	5.10717811	2.63384508	5.26089041	-1.83350346	8.47547217	17.72400267	0.17183204	2.97576182
3826	38.25000000	8.66685758	-1.67229790	6.06705869	9.03384535	1.35673046	1.60391266	10.20334125	0.87497419	-0.44169946	9.54013162	-0.61512413	-0.32685779	12.38873077	-0.43864998	-0.49616789	9.54751130	6.95883174	3.05479150	5.25897669	-1.79005256	8.47805190	17.48880607	-0.72179065	1.05796816
3827	38.26000000	8.75629986	-1.65675662	6.17308217	9.04613530	1.34774706	1.53615411	10.17103343	0.41247270	-0.47481752	9.23209628	-0.88171821	-0.50138138	12.37035635	-0.86486440	-0.57536317	9.82490289	8.75967396	3.27401416	5.34535989	-1.68229960	8.43125213	17.56133453	-2.11212155	-0.63506369
3828	38.27000000	8.87963196	-1.64705042	6.29032746	9.13717957	1.38029815	1.50599483	10.22731332	0.00129809	-0.39927902	9.10956769	-1.00057680	-0.72739705	12.15020525	-1.56798709	-0.76559819	9.74591706	9.98589159	3.37352773	5.43474283	-1.57321977	8.42078120	17.59936755	-3.76107198	-2.13647220
3829	38.28000000	9.02902838	-1.65992732	6.40251555	9.31197068	1.45327509	1.55015982	10.43162992	-0.27939504	-0.17661761	9.34799799	-1.04407770	-0.98429263	11.67046528	-2.21002838	-1.24528078	9.22697515	10.30509817	3.38884897	5.46365024	-1.51176439	8.49614203	17.37189012	-5.29063957	-3.52073590
3830	38.29000000	9.19360121	-1.70167494	6.52247611	9.52285649	1.56348157	1.63394714	10.71333256	-0.34959254	0.10252442	9.76402718	-1.09320337	-1.19168250	11.11592215	-2.74561902	-1.72263054	8.61366084	9.96837374	3.20839820	5.43931837	-1.50165418	8.59431697	17.00394633	-5.93291037	-4.97960557
3831	38.30000000	9.36182851	-1.77431925	6.66533428	9.71388202	1.70741413	1.70946694	10.97879548	-0.13944693	0.32634904	10.11688770	-1.22392344	-1.26340559	10.70129447	-3.17807774	-1.84931607	8.30489848	9.31936614	2.69719035	5.38229771	-1.53863552	8.63580863	16.64515841	-4.91321289	-6.62031324
3832	38.31000000	9.52117426	-1.84505776	6.80003444	9.85049532	1.88274885	1.72909612	11.15052765	0.26638811	0.42367480	10.29945068	-1.41339657	-1.19224165	10.41805753	-3.42972859	-1.73157387	8.31050207	8.47269670	1.77695753	5.31674177	-1.62426176	8.60581303	15.82790066	-2.43442293	-6.96101630
3833	38.32000000	9.65833874	-1.85429979	6.86000009	9.91464680	2.08805512	1.64544412	11.16350862	0.66436652	0.35462270	10.30749686	-1.56274042	-1.03173804	10.08599231	-3.36047463	-1.82532152	8.34087716	7.36674325	0.41320582	5.26956668	-1.76455372	8.53932765	13.60986901	0.54806258	-3.29805588
3834	38.33000000	9.78257498	-1.77214221	6.81638328	9.92365525	2.30246304	1.44717199	11.01935442	0.90485870	0.12754627	10.18493305	-1.60284896	-0.83546108	9.73132100	-2.73422764	-2.26878429	8.27048240	6.01700883	-1.27746233	5.25316645	-1.96194834	8.47309911	9.67396185	3.05503416	5.17080779
3835	38.34000000	9.97020809	-1.65894355	6.75515855	9.99867249	2.44727204	1.23004763	10.91673301	1.00753107	-0.10827442	10.11080310	-1.55890625	-0.65238867	10.00681311	-1.03444005	-2.22946177	8.48413273	4.68163921	-2.73281941	5.23657255	-2.20789199	8.44526489	5.59709972	4.09404447	13.50450686
3836	38.35000000	10.30088412	-1.58747271	6.77639463	10.26884745	2.43770345	1.10748945	11.07741058	1.02050625	-0.18495383	10.27495649	-1.47380030	-0.52616153	11.59168301	2.19707113	-0.78234641	9.41677985	3.64963911	-3.34063447	5.18385755	-2.48746169	8.49174807	3.23558076	2.79025814	16.11453047
3837	38.36000000	10.71839139	-1.56649297	6.87340428	10.69574414	2.25801648	1.16071761	11.52364205	0.94935173	-0.04607567	10.65508147	-1.39447593	-0.43325414	13.82754509	5.76931285	1.69631339	10.84170960	3.00050240	-2.97326360	5.10485275	-2.72083459	8.61149034	3.38635607	0.06528504	13.61311112
3838	38.37000000	11.06198536	-1.55549852	6.95733944	11.11195584	1.94561800	1.44611650	12.12411633	0.76690148	0.27895968	11.06558653	-1.37099697	-0.29845284	15.02688043	7.22256640	3.82887142	12.02306169	2.65250252	-1.87612121	5.04459500	-2.77828955	8.77495233	6.03042661	-1.77705596	11.38430239
3839	38.38000000	11.23558770	-1.51618639	6.96404332	11.39519135	1.54218824	1.95382920	12.76755456	0.47896221	0.74873008	11.37289284	-1.44823518	-0.06718946	14.21066847	5.14374283	4.62531924	12.48467263	2.60132268	-0.33372793	5.02299615	-2.61077197	8.93498213	10.51383545	-1.32374482	12.91326796
